<?xml version="1.0" encoding="UTF-8" standalone="no"?><svg xmlns="http://www.w3.org/2000/svg" xmlns:xlink="http://www.w3.org/1999/xlink" contentStyleType="text/css" height="635px" preserveAspectRatio="none" style="width:1032px;height:635px;background:#FFFFFF;" version="1.1" viewBox="0 0 1032 635" width="1032px" zoomAndPan="magnify"><defs/><g><!--MD5=[64daa5a824998c700cfb188d1583c07e]
cluster analysis--><g id="cluster_analysis"><path d="M300.5,12.1191 L403.5,12.1191 A3.75,3.75 0 0 1 406,14.6191 L413,44.8564 L454.5,44.8564 A2.5,2.5 0 0 1 457,47.3564 L457,390.6191 A2.5,2.5 0 0 1 454.5,393.1191 L300.5,393.1191 A2.5,2.5 0 0 1 298,390.6191 L298,14.6191 A2.5,2.5 0 0 1 300.5,12.1191 " fill="#FFFFFF" style="stroke:#000000;stroke-width:1.0;"/><line style="stroke:#000000;stroke-width:1.0;" x1="298" x2="413" y1="44.8564" y2="44.8564"/><text fill="#000000" font-family="Verdana" font-size="22" font-weight="bold" lengthAdjust="spacing" textLength="102" x="302" y="36.2373">analysis</text></g><!--MD5=[464b8a121da435760d275ace2e6f7972]
cluster front--><g id="cluster_front"><path d="M776.5,130.6191 L838.5,130.6191 A3.75,3.75 0 0 1 841,133.1191 L848,163.3564 L936.5,163.3564 A2.5,2.5 0 0 1 939,165.8564 L939,508.1191 A2.5,2.5 0 0 1 936.5,510.6191 L776.5,510.6191 A2.5,2.5 0 0 1 774,508.1191 L774,133.1191 A2.5,2.5 0 0 1 776.5,130.6191 " fill="#FFFFFF" style="stroke:#000000;stroke-width:1.0;"/><line style="stroke:#000000;stroke-width:1.0;" x1="774" x2="848" y1="163.3564" y2="163.3564"/><text fill="#000000" font-family="Verdana" font-size="22" font-weight="bold" lengthAdjust="spacing" textLength="61" x="778" y="154.7373">front</text><text fill="#000000" font-family="Verdana" font-size="14" font-style="italic" lengthAdjust="spacing" textLength="107" x="807" y="179.4316">«Android App»</text></g><!--MD5=[47c14c564e796a575e671c2b0469a7bb]
cluster backend--><g id="cluster_backend"><path d="M13.5,266.1191 L118.5,266.1191 A3.75,3.75 0 0 1 121,268.6191 L128,298.8564 L271.5,298.8564 A2.5,2.5 0 0 1 274,301.3564 L274,625.6191 A2.5,2.5 0 0 1 271.5,628.1191 L13.5,628.1191 A2.5,2.5 0 0 1 11,625.6191 L11,268.6191 A2.5,2.5 0 0 1 13.5,266.1191 " fill="#FFFFFF" style="stroke:#000000;stroke-width:1.0;"/><line style="stroke:#000000;stroke-width:1.0;" x1="11" x2="128" y1="298.8564" y2="298.8564"/><text fill="#000000" font-family="Verdana" font-size="22" font-weight="bold" lengthAdjust="spacing" textLength="104" x="15" y="290.2373">backend</text><text fill="#000000" font-family="Verdana" font-size="14" font-style="italic" lengthAdjust="spacing" textLength="113" x="90" y="314.9316">«Room-SQLite»</text></g><!--MD5=[36bed372667e8e2b035a3bfb59668f70]
cluster app-core--><g id="cluster_app-core"><path d="M483.5,122.1191 L594.5,122.1191 A3.75,3.75 0 0 1 597,124.6191 L604,154.8564 L747.5,154.8564 A2.5,2.5 0 0 1 750,157.3564 L750,516.6191 A2.5,2.5 0 0 1 747.5,519.1191 L483.5,519.1191 A2.5,2.5 0 0 1 481,516.6191 L481,124.6191 A2.5,2.5 0 0 1 483.5,122.1191 " fill="#FFFFFF" style="stroke:#000000;stroke-width:1.0;"/><line style="stroke:#000000;stroke-width:1.0;" x1="481" x2="604" y1="154.8564" y2="154.8564"/><text fill="#000000" font-family="Verdana" font-size="22" font-weight="bold" lengthAdjust="spacing" textLength="110" x="485" y="146.2373">app-core</text><text fill="#000000" font-family="Verdana" font-size="14" font-style="italic" lengthAdjust="spacing" textLength="153" x="543" y="170.9316">«Maven dependency»</text></g><!--MD5=[b843a707a9d29bfe6172f1502199d263]
entity XView--><g id="elem_XView"><path d="M395.5,61.1191 L395.5,85.1191 M395.5,73.1191 L412.5,73.1191 " fill="none" style="stroke:#000000;stroke-width:1.0;"/><ellipse cx="424.5" cy="73.1191" fill="#FFFFFF" rx="12" ry="12" style="stroke:#000000;stroke-width:1.0;"/><text fill="#000000" font-family="Verdana" font-size="14" lengthAdjust="spacing" textLength="42" x="395" y="103.1943">XView</text></g><!--MD5=[a91319e7cfad8d66707571e19cb9c3d9]
entity XController--><g id="elem_XController"><ellipse cx="359" cy="208.6191" fill="#FFFFFF" rx="12" ry="12" style="stroke:#000000;stroke-width:1.0;"/><polygon fill="#000000" points="355,196.6191,361,191.6191,359,196.6191,361,201.6191,355,196.6191" style="stroke:#000000;stroke-width:1.0;"/><text fill="#000000" font-family="Verdana" font-size="14" lengthAdjust="spacing" textLength="79" x="319.5" y="238.6943">XController</text></g><!--MD5=[3d3c7c6b097889d312e80a936bff3df4]
entity XDAO--><g id="elem_XDAO"><ellipse cx="335" cy="344.1191" fill="#FFFFFF" rx="12" ry="12" style="stroke:#000000;stroke-width:1.0;"/><line style="stroke:#000000;stroke-width:1.0;" x1="323" x2="347" y1="358.1191" y2="358.1191"/><text fill="#000000" font-family="Verdana" font-size="14" lengthAdjust="spacing" textLength="42" x="314" y="374.1943">XDAO</text></g><!--MD5=[fd32a81c2404801ffd3250cd88dc7b13]
entity XModel--><g id="elem_XModel"><ellipse cx="416" cy="344.1191" fill="#FFFFFF" rx="12" ry="12" style="stroke:#000000;stroke-width:1.0;"/><line style="stroke:#000000;stroke-width:1.0;" x1="404" x2="428" y1="358.1191" y2="358.1191"/><text fill="#000000" font-family="Verdana" font-size="14" lengthAdjust="spacing" textLength="50" x="391" y="374.1943">XModel</text></g><!--MD5=[c73d12a53114d3e47819c3cc4e39b233]
entity AndroidViews--><g id="elem_AndroidViews"><path d="M817.5,332.1191 L817.5,356.1191 M817.5,344.1191 L834.5,344.1191 " fill="none" style="stroke:#000000;stroke-width:1.0;"/><ellipse cx="846.5" cy="344.1191" fill="#FFFFFF" rx="12" ry="12" style="stroke:#000000;stroke-width:1.0;"/><text fill="#000000" font-family="Verdana" font-size="14" lengthAdjust="spacing" textLength="95" x="790.5" y="374.1943">AndroidViews</text></g><!--MD5=[766695570b43d7db362b7647ed636d08]
entity MainActivity--><g id="elem_MainActivity"><path d="M857.5,196.6191 L857.5,220.6191 M857.5,208.6191 L874.5,208.6191 " fill="none" style="stroke:#000000;stroke-width:1.0;"/><ellipse cx="886.5" cy="208.6191" fill="#FFFFFF" rx="12" ry="12" style="stroke:#000000;stroke-width:1.0;"/><text fill="#000000" font-family="Verdana" font-size="14" lengthAdjust="spacing" textLength="82" x="837" y="238.6943">MainActivity</text></g><!--MD5=[50ed06e1461c96d2b335a37e81541c29]
entity Fragments--><g id="elem_Fragments"><path d="M864.5,449.6191 L864.5,473.6191 M864.5,461.6191 L881.5,461.6191 " fill="none" style="stroke:#000000;stroke-width:1.0;"/><ellipse cx="893.5" cy="461.6191" fill="#FFFFFF" rx="12" ry="12" style="stroke:#000000;stroke-width:1.0;"/><text fill="#000000" font-family="Verdana" font-size="14" lengthAdjust="spacing" textLength="75" x="847.5" y="491.6943">Fragments</text></g><!--MD5=[52ea76286d533deda6aef5bb15e6871a]
entity SessionDAO--><g id="elem_SessionDAO"><ellipse cx="214" cy="344.1191" fill="#FFFFFF" rx="12" ry="12" style="stroke:#000000;stroke-width:1.0;"/><line style="stroke:#000000;stroke-width:1.0;" x1="202" x2="226" y1="358.1191" y2="358.1191"/><text fill="#000000" font-family="Verdana" font-size="14" lengthAdjust="spacing" textLength="87" x="170.5" y="374.1943">SessionDAO</text></g><!--MD5=[046587d2a8daa5aee0d3a6e6bd6f31f3]
entity GameDAO--><g id="elem_GameDAO"><ellipse cx="220" cy="461.6191" fill="#FFFFFF" rx="12" ry="12" style="stroke:#000000;stroke-width:1.0;"/><line style="stroke:#000000;stroke-width:1.0;" x1="208" x2="232" y1="475.6191" y2="475.6191"/><text fill="#000000" font-family="Verdana" font-size="14" lengthAdjust="spacing" textLength="72" x="184" y="491.6943">GameDAO</text></g><!--MD5=[70b4a440639e02c02475db39fde329e3]
entity GameEntity--><g id="elem_GameEntity"><ellipse cx="217" cy="579.1191" fill="#FFFFFF" rx="12" ry="12" style="stroke:#000000;stroke-width:1.0;"/><line style="stroke:#000000;stroke-width:1.0;" x1="205" x2="229" y1="593.1191" y2="593.1191"/><text fill="#000000" font-family="Verdana" font-size="14" lengthAdjust="spacing" textLength="81" x="176.5" y="609.1943">GameEntity</text></g><!--MD5=[b2aaae3edf23cbeff8dbdad55044fd8a]
entity PropCombDAO--><g id="elem_PropCombDAO"><ellipse cx="96" cy="461.6191" fill="#FFFFFF" rx="12" ry="12" style="stroke:#000000;stroke-width:1.0;"/><line style="stroke:#000000;stroke-width:1.0;" x1="84" x2="108" y1="475.6191" y2="475.6191"/><text fill="#000000" font-family="Verdana" font-size="14" lengthAdjust="spacing" textLength="105" x="43.5" y="491.6943">PropCombDAO</text></g><!--MD5=[e20aa307f73851ff8c9e81e43ea0b79d]
entity PropCombEntity--><g id="elem_PropCombEntity"><ellipse cx="84" cy="579.1191" fill="#FFFFFF" rx="12" ry="12" style="stroke:#000000;stroke-width:1.0;"/><line style="stroke:#000000;stroke-width:1.0;" x1="72" x2="96" y1="593.1191" y2="593.1191"/><text fill="#000000" font-family="Verdana" font-size="14" lengthAdjust="spacing" textLength="114" x="27" y="609.1943">PropCombEntity</text></g><!--MD5=[8b1586afe2bbb1175c208ec6c91dc929]
entity CoreSessionDAO--><g id="elem_CoreSessionDAO"><ellipse cx="557" cy="470.1338" fill="#FFFFFF" rx="12" ry="12" style="stroke:#000000;stroke-width:1.0;"/><line style="stroke:#000000;stroke-width:1.0;" x1="545" x2="569" y1="484.1338" y2="484.1338"/><text fill="#000000" font-family="Verdana" font-size="14" lengthAdjust="spacing" textLength="120" x="497" y="500.209">CoreSessionDAO</text><text fill="#000000" font-family="Verdana" font-size="14" font-style="italic" lengthAdjust="spacing" textLength="76" x="519" y="451.1943">«abstract»</text></g><!--MD5=[fc1ca7b7ebc9b00e1e01118923b79014]
entity CoreViews--><g id="elem_CoreViews"><path d="M536.5,205.1338 L536.5,229.1338 M536.5,217.1338 L553.5,217.1338 " fill="none" style="stroke:#000000;stroke-width:1.0;"/><ellipse cx="565.5" cy="217.1338" fill="#FFFFFF" rx="12" ry="12" style="stroke:#000000;stroke-width:1.0;"/><text fill="#000000" font-family="Verdana" font-size="14" lengthAdjust="spacing" textLength="73" x="520.5" y="247.209">CoreViews</text><text fill="#000000" font-family="Verdana" font-size="14" font-style="italic" lengthAdjust="spacing" textLength="76" x="519" y="198.1943">«abstract»</text></g><!--MD5=[cf6cff4068e8dd695eebf1f0ee1ed4b8]
entity CoreControllers--><g id="elem_CoreControllers"><ellipse cx="557" cy="344.1191" fill="#FFFFFF" rx="12" ry="12" style="stroke:#000000;stroke-width:1.0;"/><polygon fill="#000000" points="553,332.1191,559,327.1191,557,332.1191,559,337.1191,553,332.1191" style="stroke:#000000;stroke-width:1.0;"/><text fill="#000000" font-family="Verdana" font-size="14" lengthAdjust="spacing" textLength="110" x="502" y="374.1943">CoreControllers</text></g><!--MD5=[5b9d10650593f02df21ea1864d6848c4]
entity CoreModels--><g id="elem_CoreModels"><ellipse cx="693" cy="461.6191" fill="#FFFFFF" rx="12" ry="12" style="stroke:#000000;stroke-width:1.0;"/><line style="stroke:#000000;stroke-width:1.0;" x1="681" x2="705" y1="475.6191" y2="475.6191"/><text fill="#000000" font-family="Verdana" font-size="14" lengthAdjust="spacing" textLength="81" x="652.5" y="491.6943">CoreModels</text></g><!--MD5=[50a2f9fbc7f4e317ae9a157602683354]
link XView to XController--><g id="link_XView_XController"><path d="M405.94,106.1791 C396.23,128.9191 381.52,163.3691 371.16,187.6391 " fill="none" id="XView-to-XController" style="stroke:#000000;stroke-width:1.0;stroke-dasharray:7.0,7.0;"/><polygon fill="#000000" points="369.15,192.3491,376.3719,185.6525,371.1196,187.7534,369.0187,182.5012,369.15,192.3491" style="stroke:#000000;stroke-width:1.0;"/></g><!--MD5=[ec381c4eec30df59611508dbe01cdcf3]
link XView to XModel--><g id="link_XView_XModel"><path d="M416,106.4891 C416,155.8391 416,268.9591 416,322.4991 " fill="none" id="XView-to-XModel" style="stroke:#000000;stroke-width:1.0;stroke-dasharray:7.0,7.0;"/><polygon fill="#000000" points="416,327.7991,420,318.7991,416,322.7991,412,318.7991,416,327.7991" style="stroke:#000000;stroke-width:1.0;"/></g><!--MD5=[b87fd9631df6affa7e778aa25e2c6d03]
link XController to XModel--><g id="link_XController_XModel"><path d="M369.06,241.6791 C378.77,264.4191 393.48,298.8691 403.84,323.1391 " fill="none" id="XController-to-XModel" style="stroke:#000000;stroke-width:1.0;stroke-dasharray:7.0,7.0;"/><polygon fill="#000000" points="405.85,327.8491,405.9813,318.0012,403.8804,323.2534,398.6281,321.1525,405.85,327.8491" style="stroke:#000000;stroke-width:1.0;"/></g><!--MD5=[0d95fea56a75b9c17caa8f96f96ff615]
link XController to XDAO--><g id="link_XController_XDAO"><path d="M354.76,241.6791 C350.69,264.3191 344.53,298.5791 340.18,322.8291 " fill="none" id="XController-to-XDAO" style="stroke:#000000;stroke-width:1.0;stroke-dasharray:7.0,7.0;"/><polygon fill="#000000" points="339.27,327.8491,344.8029,319.7013,340.1569,322.9284,336.9298,318.2824,339.27,327.8491" style="stroke:#000000;stroke-width:1.0;"/></g><!--MD5=[271e5a0d1313c9ea8380e5a4284ae16d]
link AndroidViews to Fragments--><g id="link_AndroidViews_Fragments"><path d="M847.62,377.2691 C855.1,395.6491 865.5,421.1991 873.43,440.6791 " fill="none" id="AndroidViews-to-Fragments" style="stroke:#000000;stroke-width:1.0;"/><polygon fill="#000000" points="875.39,445.4991,875.6987,435.6551,873.5035,440.8687,868.29,438.6735,875.39,445.4991" style="stroke:#000000;stroke-width:1.0;"/></g><!--MD5=[3b0c547713d0cd61815d47803214b7c6]
link MainActivity to Fragments--><g id="link_MainActivity_Fragments"><path d="M895.66,241.6191 C898.69,246.8091 901.37,252.4491 903,258.1191 C921.16,321.4591 905.07,399.5191 893.79,440.6491 " fill="none" id="MainActivity-to-Fragments" style="stroke:#000000;stroke-width:1.0;stroke-dasharray:7.0,7.0;"/><polygon fill="#000000" points="892.44,445.4791,898.711,437.8848,893.7834,440.663,891.0052,435.7354,892.44,445.4791" style="stroke:#000000;stroke-width:1.0;"/></g><!--MD5=[e4d0d515cee35df1cd2a5a84f9905dfd]
link MainActivity to AndroidViews--><g id="link_MainActivity_AndroidViews"><path d="M870.94,241.6791 C864.16,264.3191 853.89,298.5791 846.63,322.8291 " fill="none" id="MainActivity-to-AndroidViews" style="stroke:#000000;stroke-width:1.0;"/><polygon fill="#000000" points="845.12,327.8491,851.5477,320.3869,846.5633,323.062,843.8882,318.0776,845.12,327.8491" style="stroke:#000000;stroke-width:1.0;"/></g><!--MD5=[f4f41483b000ae5736a26103a185c8ce]
reverse link XView to AndroidViews--><g id="link_XView_AndroidViews"><path d="M445.91,83.6391 C523.37,86.5391 726.15,95.7991 750,114.1191 C785.22,141.1691 819.65,273.4091 832.61,327.9891 " fill="none" id="XView-backto-AndroidViews" style="stroke:#000000;stroke-width:1.0;stroke-dasharray:7.0,7.0;"/><polygon fill="#000000" points="440.55,83.4391,449.3953,87.7704,445.5466,83.6247,449.6923,79.776,440.55,83.4391" style="stroke:#000000;stroke-width:1.0;"/></g><!--MD5=[d4a721be3674ed735d04cd49f551c776]
reverse link XView to MainActivity--><g id="link_XView_MainActivity"><path d="M445.85,83.5091 C532.33,86.3091 778.85,95.8191 810,114.1191 C839.91,131.6991 859.3,168.2391 869.44,192.4791 " fill="none" id="XView-backto-MainActivity" style="stroke:#000000;stroke-width:1.0;stroke-dasharray:7.0,7.0;"/><polygon fill="#000000" points="440.63,83.3491,449.4999,87.6299,445.6275,83.5062,449.7512,79.6338,440.63,83.3491" style="stroke:#000000;stroke-width:1.0;"/></g><!--MD5=[5a4eb707a568b7e8bc15cd1a82628dad]
reverse link XView to Fragments--><g id="link_XView_Fragments"><path d="M445.81,83.3091 C553.94,85.9291 920.07,96.1291 937,114.1191 C1025.38,207.9991 936.83,382.1691 899.7,445.3991 " fill="none" id="XView-backto-Fragments" style="stroke:#000000;stroke-width:1.0;stroke-dasharray:7.0,7.0;"/><polygon fill="#000000" points="440.56,83.1791,449.4542,87.4092,445.5583,83.3077,449.6598,79.4118,440.56,83.1791" style="stroke:#000000;stroke-width:1.0;"/></g><!--MD5=[2438a615ce1ca4e234c6af9214d755ca]
link SessionDAO to GameDAO--><g id="link_SessionDAO_GameDAO"><path d="M215.23,377.2691 C216.18,395.4891 217.49,420.7591 218.5,440.1891 " fill="none" id="SessionDAO-to-GameDAO" style="stroke:#000000;stroke-width:1.0;"/><polygon fill="#000000" points="218.77,445.4991,222.3011,436.3051,218.5125,440.5058,214.3117,436.7171,218.77,445.4991" style="stroke:#000000;stroke-width:1.0;"/></g><!--MD5=[b8ffb96e59bfd7818e195cb849801e55]
link SessionDAO to PropCombDAO--><g id="link_SessionDAO_PropCombDAO"><path d="M189.84,377.2691 C170.75,395.9591 144.08,422.0591 124.04,441.6691 " fill="none" id="SessionDAO-to-PropCombDAO" style="stroke:#000000;stroke-width:1.0;"/><polygon fill="#000000" points="120.13,445.4991,129.3576,442.0566,123.7011,441.9995,123.7582,436.3429,120.13,445.4991" style="stroke:#000000;stroke-width:1.0;"/></g><!--MD5=[5a019c1d3d988fed36f71edd6db5d0ad]
link GameDAO to GameEntity--><g id="link_GameDAO_GameEntity"><path d="M219.39,494.7691 C218.91,512.9891 218.26,538.2591 217.75,557.6891 " fill="none" id="GameDAO-to-GameEntity" style="stroke:#000000;stroke-width:1.0;"/><polygon fill="#000000" points="217.61,562.9991,221.84,554.1049,217.7385,558.0008,213.8427,553.8993,217.61,562.9991" style="stroke:#000000;stroke-width:1.0;"/></g><!--MD5=[7c8f64b09d69d70c07e9a29977c78212]
link PropCombDAO to PropCombEntity--><g id="link_PropCombDAO_PropCombEntity"><path d="M93.54,494.7691 C91.65,512.9891 89.02,538.2591 87.01,557.6891 " fill="none" id="PropCombDAO-to-PropCombEntity" style="stroke:#000000;stroke-width:1.0;"/><polygon fill="#000000" points="86.45,562.9991,91.3549,554.4585,86.9645,558.0257,83.3973,553.6353,86.45,562.9991" style="stroke:#000000;stroke-width:1.0;"/></g><!--MD5=[0b6098fe8236e54c8c28238d90c3cebb]
reverse link XDAO to SessionDAO--><g id="link_XDAO_SessionDAO"><path d="M308.69,352.6191 C291.78,352.6191 274.87,352.6191 257.96,352.6191 " fill="none" id="XDAO-backto-SessionDAO" style="stroke:#000000;stroke-width:1.0;stroke-dasharray:7.0,7.0;"/><polygon fill="#000000" points="313.93,352.6191,304.93,348.6191,308.93,352.6191,304.93,356.6191,313.93,352.6191" style="stroke:#000000;stroke-width:1.0;"/></g><!--MD5=[8a25c2de61cea7a75c219d3feb3d5dc7]
reverse link XDAO to GameDAO--><g id="link_XDAO_GameDAO"><path d="M310.08,378.6491 C290.39,398.4191 263.11,425.8291 243.74,445.2791 " fill="none" id="XDAO-backto-GameDAO" style="stroke:#000000;stroke-width:1.0;stroke-dasharray:7.0,7.0;"/><polygon fill="#000000" points="313.91,374.7991,304.7248,378.3532,310.3816,378.3418,310.393,383.9987,313.91,374.7991" style="stroke:#000000;stroke-width:1.0;"/></g><!--MD5=[ef5222c056971796ea6e3d28c0ee353c]
reverse link XDAO to PropCombDAO--><g id="link_XDAO_PropCombDAO"><path d="M309.87,376.2991 C299.34,384.9391 286.63,394.3291 274,401.1191 C229.8,424.8691 213.71,418.7891 167,437.1191 C160.33,439.7391 153.38,442.6391 146.55,445.6091 " fill="none" id="XDAO-backto-PropCombDAO" style="stroke:#000000;stroke-width:1.0;stroke-dasharray:7.0,7.0;"/><polygon fill="#000000" points="313.94,372.8991,304.4643,375.5844,310.0977,376.0987,309.5835,381.7321,313.94,372.8991" style="stroke:#000000;stroke-width:1.0;"/></g><!--MD5=[baf45c8bea3bd712a2bc098f230d79db]
link GameEntity to XModel--><g id="link_GameEntity_XModel"><path d="M257.71,577.7591 C287.45,569.3491 326.83,553.8991 352,527.1191 C390.46,486.2091 406.24,420.2191 412.38,382.5091 " fill="none" id="GameEntity-to-XModel" style="stroke:#000000;stroke-width:1.0;stroke-dasharray:7.0,7.0;"/><polygon fill="#000000" points="413.22,377.1591,407.8764,385.4323,412.4468,382.099,415.7801,386.6694,413.22,377.1591" style="stroke:#000000;stroke-width:1.0;"/></g><!--MD5=[11dc7dbc03c85261a4862360b3bcdd76]
link PropCombEntity to XModel--><g id="link_PropCombEntity_XModel"><path d="M141.33,568.6591 C147.3,566.7891 153.27,564.9091 159,563.1191 C210.11,547.1091 229.62,557.0991 274,527.1191 C274.96,526.4691 353.64,430.0791 393.45,381.2691 " fill="none" id="PropCombEntity-to-XModel" style="stroke:#000000;stroke-width:1.0;stroke-dasharray:7.0,7.0;"/><polygon fill="#000000" points="396.71,377.2691,387.9222,381.716,393.55,381.144,394.122,386.7719,396.71,377.2691" style="stroke:#000000;stroke-width:1.0;"/></g><!--MD5=[c90e3500bfcbcca482ec118ec726b61b]
link CoreViews to CoreControllers--><g id="link_CoreViews_CoreControllers"><path d="M557,250.4391 C557,272.4891 557,301.4491 557,322.7291 " fill="none" id="CoreViews-to-CoreControllers" style="stroke:#000000;stroke-width:1.0;"/><polygon fill="#000000" points="557,327.9691,561,318.9691,557,322.9691,553,318.9691,557,327.9691" style="stroke:#000000;stroke-width:1.0;"/></g><!--MD5=[08291a1ce0c5886fc4b23057253e28fa]
link CoreViews to CoreModels--><g id="link_CoreViews_CoreModels"><path d="M595.16,232.0591 C607.79,238.3191 620.91,246.8791 630,258.1191 C673.88,312.3991 687.22,396.5791 691.25,440.3991 " fill="none" id="CoreViews-to-CoreModels" style="stroke:#000000;stroke-width:1.0;"/><polygon fill="#000000" points="691.7,445.5391,694.9145,436.2296,691.2718,440.5575,686.9439,436.9148,691.7,445.5391" style="stroke:#000000;stroke-width:1.0;"/></g><!--MD5=[f4b8b5995a7e61cb13f11fd06b70f067]
link CoreControllers to CoreModels--><g id="link_CoreControllers_CoreModels"><path d="M584.85,377.2691 C607.04,396.1091 638.1,422.4991 661.25,442.1591 " fill="none" id="CoreControllers-to-CoreModels" style="stroke:#000000;stroke-width:1.0;"/><polygon fill="#000000" points="665.19,445.4991,660.9241,436.6221,661.3807,442.2605,655.7423,442.717,665.19,445.4991" style="stroke:#000000;stroke-width:1.0;"/></g><!--MD5=[ece19dc22fadb6ffb751cc50a4a898b1]
link CoreControllers to CoreSessionDAO--><g id="link_CoreControllers_CoreSessionDAO"><path d="M557,377.2691 C557,392.8191 557,413.5091 557,431.3191 " fill="none" id="CoreControllers-to-CoreSessionDAO" style="stroke:#000000;stroke-width:1.0;"/><polygon fill="#000000" points="557,436.7391,561,427.7391,557,431.7391,553,427.7391,557,436.7391" style="stroke:#000000;stroke-width:1.0;"/></g><!--MD5=[e5c793edc25f9e75394ac4dfe9ffd878]
reverse link XView to CoreViews--><g id="link_XView_CoreViews"><path d="M444.87,103.9791 C449.01,107.2791 453.17,110.7291 457,114.1191 C481.87,136.1591 508.1,163.0691 527.46,183.7191 " fill="none" id="XView-backto-CoreViews" style="stroke:#000000;stroke-width:1.0;stroke-dasharray:7.0,7.0;"/><polygon fill="#000000" points="440.73,100.7291,445.3174,109.4444,444.6551,103.8264,450.2731,103.1642,440.73,100.7291" style="stroke:#000000;stroke-width:1.0;"/></g><!--MD5=[a5bce52d80cd80fc9e2551cf39fca370]
reverse link XController to CoreControllers--><g id="link_XController_CoreControllers"><path d="M403.6,232.3991 C420.96,238.9491 440.59,247.6091 457,258.1191 C487.62,277.7291 517.36,307.2991 536.33,327.9191 " fill="none" id="XController-backto-CoreControllers" style="stroke:#000000;stroke-width:1.0;stroke-dasharray:7.0,7.0;"/><polygon fill="#000000" points="398.77,230.6091,405.8361,237.4699,403.4627,232.335,408.5975,229.9616,398.77,230.6091" style="stroke:#000000;stroke-width:1.0;"/></g><!--MD5=[bb5c25c95e4903570bd7b3b7ac7cbef7]
reverse link XModel to CoreModels--><g id="link_XModel_CoreModels"><path d="M445.21,378.8191 C455.89,386.9591 468.44,395.3491 481,401.1191 C544.88,430.4391 569.39,411.9091 635,437.1191 C641.23,439.5091 647.61,442.4591 653.76,445.5991 " fill="none" id="XModel-backto-CoreModels" style="stroke:#000000;stroke-width:1.0;stroke-dasharray:7.0,7.0;"/><polygon fill="#000000" points="441.06,375.5991,445.7367,384.2668,445.0167,378.656,450.6276,377.936,441.06,375.5991" style="stroke:#000000;stroke-width:1.0;"/></g><!--MD5=[ed0ce23cf08088a872ae63afe2ee63f9]
reverse link XDAO to CoreSessionDAO--><g id="link_XDAO_CoreSessionDAO"><path d="M353.52,381.1591 C359.4,388.3891 366.38,395.6791 374,401.1191 C410.84,427.3891 459.02,444.7591 496.7,455.3591 " fill="none" id="XDAO-backto-CoreSessionDAO" style="stroke:#000000;stroke-width:1.0;stroke-dasharray:7.0,7.0;"/><polygon fill="#000000" points="350.37,377.1591,352.805,386.7022,353.4673,381.0843,359.0852,381.7466,350.37,377.1591" style="stroke:#000000;stroke-width:1.0;"/></g><!--MD5=[41731a211ea509da2ea83ef5142a8b8f]
@startuml analysis-architecture
!theme plain

package analysis{
    boundary XView
    control XController
    entity XDAO
    entity XModel
}

package front <<Android App>> {
    boundary AndroidViews
    boundary MainActivity
    boundary Fragments
}

package backend <<Room-SQLite>> {
    entity SessionDAO
    entity GameDAO
    entity GameEntity
    entity PropCombDAO
    entity PropCombEntity
}

package app-core <<Maven dependency>> {
    entity CoreSessionDAO <<abstract>>
    boundary CoreViews <<abstract>>
    control CoreControllers
    entity CoreModels
}

' analysis
XView ..> XController
XView ..> XModel
XController ..> XModel
XController ..> XDAO

' front
AndroidViews - -> Fragments 
MainActivity ..> Fragments
MainActivity - -> AndroidViews

AndroidViews .up.> XView
MainActivity .up.> XView
Fragments .up.> XView

' backend
SessionDAO - -> GameDAO
SessionDAO - -> PropCombDAO
GameDAO - -> GameEntity
PropCombDAO - -> PropCombEntity

SessionDAO .up.> XDAO
GameDAO .up.> XDAO
PropCombDAO .up.> XDAO
GameEntity .right.> XModel
PropCombEntity .right.> XModel

' app-core
CoreViews - -> CoreControllers
CoreViews - -> CoreModels
CoreControllers - -> CoreModels
CoreControllers - -> CoreSessionDAO

CoreViews .up.> XView
CoreControllers .up.> XController
CoreModels .up.> XModel
CoreSessionDAO .up.> XDAO


@end

@startuml analysis-architecture







<style>
  root {
    BackgroundColor white
    FontColor black
    FontName Verdana
    HyperLinkColor blue
    LineColor black
    LineThickness 1
    Margin 5
  }
  caption {
    LineThickness 0
  }
  footer {
    LineThickness 0
  }
  header {
    LineThickness 0
  }
  node {
    MaximumWidth 300
  }
  title {
    FontSize 22
    LineThickness 0
  }
</style>

skinparam ArrowLollipopColor black
skinparam BackgroundColor white
skinparam DefaultFontName Verdana
skinparam DefaultMonospacedFontName Courier
skinparam LifelineStrategy nosolid
skinparam ParticipantPadding 10
skinparam SequenceLifeLineBorderColor black
skinparam Shadowing false
skinparam UseBetaStyle true

skinparam Activity {
  BackgroundColor white
  BarColor black
  BorderColor black
  FontColor black
  FontName Verdana
}
skinparam Boundary {
  FontColor black
}
skinparam Box {
  Padding 5
}
skinparam CircledCharacter {
  FontColor black
  FontName Courier
  Radius 9
}
skinparam Class {
  BackgroundColor white
  BorderColor black
  FontColor black
  FontName Verdana
}
skinparam ClassAttribute {
  FontColor black
  FontName Verdana
}
skinparam ClassStereotype {
  FontColor black
  FontName Verdana
}
skinparam Footer {
  FontColor black
  FontName Verdana
}
skinparam Header {
  FontColor black
  FontName Verdana
}
skinparam Hyperlink {
  Color blue
}
skinparam IconPackage {
  Color black
  BackgroundColor white
}
skinparam IconPrivate {
  Color black
  BackgroundColor white
}
skinparam IconProtected {
  Color black
  BackgroundColor white
}
skinparam IconPublic {
  Color black
  BackgroundColor white
}
skinparam Note {
  FontColor black
  FontName Verdana
}
skinparam Object {
  BorderColor black
}
skinparam Package {
  BorderColor black
  FontColor black
  FontName Verdana
}
skinparam State {
  BackgroundColor white
  BorderColor black
}
skinparam StereotypeA {
  BackgroundColor white
  BorderColor black
}
skinparam StereotypeC {
  BackgroundColor white
  BorderColor black
}
skinparam StereotypeE {
  BackgroundColor white
  BorderColor black
}
skinparam StereotypeI {
  BackgroundColor white
  BorderColor black
}
skinparam StereotypeN {
  BackgroundColor white
  BorderColor black
}
skinparam UseCaseStereoType {
  FontColor black
  FontName Verdana
}

package analysis{
    boundary XView
    control XController
    entity XDAO
    entity XModel
}

package front <<Android App>> {
    boundary AndroidViews
    boundary MainActivity
    boundary Fragments
}

package backend <<Room-SQLite>> {
    entity SessionDAO
    entity GameDAO
    entity GameEntity
    entity PropCombDAO
    entity PropCombEntity
}

package app-core <<Maven dependency>> {
    entity CoreSessionDAO <<abstract>>
    boundary CoreViews <<abstract>>
    control CoreControllers
    entity CoreModels
}

XView ..> XController
XView ..> XModel
XController ..> XModel
XController ..> XDAO

AndroidViews - -> Fragments 
MainActivity ..> Fragments
MainActivity - -> AndroidViews

AndroidViews .up.> XView
MainActivity .up.> XView
Fragments .up.> XView

SessionDAO - -> GameDAO
SessionDAO - -> PropCombDAO
GameDAO - -> GameEntity
PropCombDAO - -> PropCombEntity

SessionDAO .up.> XDAO
GameDAO .up.> XDAO
PropCombDAO .up.> XDAO
GameEntity .right.> XModel
PropCombEntity .right.> XModel

CoreViews - -> CoreControllers
CoreViews - -> CoreModels
CoreControllers - -> CoreModels
CoreControllers - -> CoreSessionDAO

CoreViews .up.> XView
CoreControllers .up.> XController
CoreModels .up.> XModel
CoreSessionDAO .up.> XDAO


@end

PlantUML version 1.2022.7(Mon Aug 22 12:01:30 CDT 2022)
(GPL source distribution)
Java Runtime: Java(TM) SE Runtime Environment
JVM: Java HotSpot(TM) 64-Bit Server VM
Default Encoding: Cp1252
Language: es
Country: MX
--></g></svg>